<svg id="Layer_1" data-name="Layer 1" xmlns="http://www.w3.org/2000/svg" viewBox="0 0 1451.34 1451.34"><defs><style>.cls-1{fill:#fff;}.cls-2{fill:#b7abd4;}.cls-3{fill:#665a81;}.cls-4{fill:#ec81ac;}.cls-5{fill:#5a4099;}.cls-14,.cls-15,.cls-17,.cls-6,.cls-7,.cls-9{fill:none;}.cls-6,.cls-7{stroke:#5a4099;stroke-width:0.25px;}.cls-14,.cls-15,.cls-19,.cls-6,.cls-7{stroke-miterlimit:10;}.cls-7{stroke-dasharray:0.98 0.33;}.cls-8{fill:#66815a;}.cls-17,.cls-9{stroke:#fff;stroke-linecap:round;stroke-linejoin:round;}.cls-9{stroke-width:0.68px;}.cls-10{fill:#b38857;}.cls-11{fill:#e68f2c;}.cls-12{fill:#7f57a4;}.cls-13{fill:#6c5d8e;}.cls-14,.cls-15{stroke:#6c5d8e;stroke-width:0.28px;}.cls-15{stroke-dasharray:1.07 0.36;}.cls-16{fill:#817654;}.cls-17{stroke-width:0.74px;}.cls-18{fill:#6d6e71;}.cls-19{fill:#58595b;stroke:#6d6e71;stroke-width:1.14px;}.cls-20{fill:#fbb040;}.cls-21{fill:#ef4136;}.cls-22{fill:#be1e2d;}.cls-23{fill:#231f20;}</style></defs><title>van school1copy 3</title><rect class="cls-1" x="-0.61" y="1" width="1452" height="1452"/><path class="cls-2" d="M787.82,695.53v.34s0,3.89,3.89,3.89h32.08c3.89,0,3.89-3.89,3.89-3.89v-.34Z"/><polygon class="cls-3" points="827.68 653.92 807.81 653.92 807.69 653.92 787.82 653.92 787.82 695.53 827.68 695.53 827.68 653.92"/><path class="cls-4" d="M830.05,641.12H785.2s-4.89,9.29,0,18.58h44.85S835.77,650.2,830.05,641.12Z"/><path class="cls-3" d="M823.93,640.48h-32.5s-3.32,6.3,0,12.6h32.5S827.81,646.64,823.93,640.48Z"/><path class="cls-3" d="M787.82,667.75s-4.8-.64-4.8,3.57v17.11h4.8Z"/><path class="cls-5" d="M783.7,673.58v-1.66s-.28-3.84,3.44-3.48v5.14Z"/><line class="cls-6" x1="785.42" y1="673.24" x2="785.42" y2="673.75"/><line class="cls-7" x1="785.42" y1="674.08" x2="785.42" y2="688.32"/><line class="cls-6" x1="785.42" y1="688.49" x2="785.42" y2="688.99"/><path class="cls-2" d="M783,674.73s-1.8,1.52,0,4Z"/><path class="cls-2" d="M783,688.43v1.66s.06,3.87,4.8,3.87v-5.53Z"/><path class="cls-3" d="M827.68,667.75s4.8-.64,4.8,3.57v17.11h-4.8Z"/><path class="cls-5" d="M831.8,673.58v-1.66s.28-3.84-3.44-3.48v5.14Z"/><line class="cls-6" x1="830.08" y1="673.24" x2="830.08" y2="673.75"/><line class="cls-7" x1="830.08" y1="674.08" x2="830.08" y2="688.32"/><line class="cls-6" x1="830.08" y1="688.49" x2="830.08" y2="688.99"/><path class="cls-2" d="M832.48,674.73s1.8,1.52,0,4Z"/><path class="cls-2" d="M832.48,688.43v1.66s-.06,3.87-4.8,3.87v-5.53Z"/><path class="cls-5" d="M808,678.07H794.2v12.25c0,2.94,2.37,3,2.37,3h22.36s2.37-.1,2.37-3V678.07Z"/><path class="cls-2" d="M794.2,688.67v1c0,3,2.37,3.05,2.37,3.05h22.36s2.37-.1,2.37-3.05v-1Z"/><polygon class="cls-8" points="821.3 677.43 808.04 677.43 807.46 677.43 794.2 677.43 794.2 688.67 821.3 688.67 821.3 677.43"/><path class="cls-4" d="M808,671.69H794.2v7.07c0,3,2.37,3,2.37,3h22.36s2.37-.1,2.37-3v-7.07Z"/><path class="cls-8" d="M808,671H794.2v7.07c0,2.95,2.37,3,2.37,3h22.36s2.37-.1,2.37-3V671Z"/><rect class="cls-5" x="798.96" y="674.73" width="3.52" height="16.38"/><rect class="cls-3" x="799.53" y="675.18" width="2.37" height="15.93"/><polyline class="cls-9" points="798.96 680.57 798.96 682.68 802.48 682.68 802.48 680.57"/><path class="cls-1" d="M801.21,677.57a.49.49,0,1,0-.49.49A.49.49,0,0,0,801.21,677.57Z"/><path class="cls-1" d="M801.21,685.68a.49.49,0,1,0-.49.49A.49.49,0,0,0,801.21,685.68Z"/><circle class="cls-1" cx="800.72" cy="688.67" r="0.49"/><rect class="cls-5" x="813.02" y="674.73" width="3.52" height="16.38"/><rect class="cls-3" x="813.6" y="675.18" width="2.37" height="15.93"/><polyline class="cls-9" points="813.02 680.57 813.02 682.68 816.55 682.68 816.55 680.57"/><path class="cls-1" d="M815.28,677.57a.5.5,0,1,0-.49.49A.49.49,0,0,0,815.28,677.57Z"/><path class="cls-1" d="M815.28,685.68a.5.5,0,1,0-.49.49A.49.49,0,0,0,815.28,685.68Z"/><circle class="cls-1" cx="814.79" cy="688.67" r="0.49"/><rect class="cls-5" x="797.15" y="645.23" width="3.52" height="26.89"/><rect class="cls-3" x="797.73" y="645.68" width="2.37" height="26.44"/><polyline class="cls-9" points="797.15 651.06 797.15 653.18 800.67 653.18 800.67 651.06"/><rect class="cls-9" x="797.15" y="665.58" width="3.52" height="4.26"/><path class="cls-1" d="M799.41,648.07a.5.5,0,1,0-.5.49A.49.49,0,0,0,799.41,648.07Z"/><path class="cls-1" d="M799.41,656.17a.5.5,0,1,0-.5.5A.49.49,0,0,0,799.41,656.17Z"/><path class="cls-1" d="M799.41,659.43a.5.5,0,1,0-.5.5A.49.49,0,0,0,799.41,659.43Z"/><path class="cls-1" d="M799.41,662.69a.5.5,0,1,0-.5.5A.49.49,0,0,0,799.41,662.69Z"/><rect class="cls-5" x="814.74" y="645.23" width="3.52" height="26.89"/><rect class="cls-3" x="815.32" y="645.68" width="2.37" height="26.44"/><polyline class="cls-9" points="814.74 651.06 814.74 653.18 818.27 653.18 818.27 651.06"/><rect class="cls-9" x="814.74" y="665.58" width="3.52" height="4.26"/><circle class="cls-1" cx="816.5" cy="648.07" r="0.49"/><circle class="cls-1" cx="816.5" cy="656.17" r="0.49"/><circle class="cls-1" cx="816.5" cy="659.43" r="0.49"/><path class="cls-1" d="M817,662.69a.5.5,0,1,0-.5.5A.49.49,0,0,0,817,662.69Z"/><path class="cls-3" d="M801.9,641.12s1.26-7.61,5.85-7.61,5.27,7.61,5.27,7.61h-1.46s-1-6.44-3.81-6.44-4.31,6.44-4.31,6.44Z"/><path class="cls-10" d="M891.15,651h-.37s-4.25,0-4.21,4.29l.16,17.48v.12l.17,17.48c0,4.25,4.29,4.21,4.29,4.21h.37Z"/><polygon class="cls-11" points="937.05 694.15 936.85 672.42 936.85 672.29 936.64 650.57 891.15 651 891.56 694.58 937.05 694.15"/><path class="cls-12" d="M951.08,696.6l-.47-49s-10.2-5.24-20.3.2l.46,49S941.22,703,951.08,696.6Z"/><path class="cls-11" d="M951.72,689.91l-.34-35.54s-6.92-3.56-13.78.13l.34,35.54S945,694.21,951.72,689.91Z"/><path class="cls-11" d="M921.53,650.71s.65-5.25-3.95-5.21l-18.71.18,0,5.24Z"/><path class="cls-13" d="M915.11,646.27l1.81,0s4.2-.35,3.84,3.73l-5.62,0Z"/><line class="cls-14" x1="915.5" y1="648.14" x2="914.94" y2="648.15"/><line class="cls-15" x1="914.58" y1="648.15" x2="899.01" y2="648.3"/><line class="cls-14" x1="898.83" y1="648.3" x2="898.28" y2="648.3"/><path class="cls-10" d="M913.85,645.54s-1.69-2-4.38,0Z"/><path class="cls-10" d="M898.87,645.68l-1.82,0s-4.23.1-4.18,5.28l6-.06Z"/><path class="cls-11" d="M921.94,694.29s.75,5.24-3.85,5.28l-18.71.18,0-5.25Z"/><path class="cls-13" d="M915.61,698.85h1.81s4.21.26,3.77-3.8l-5.62.05Z"/><line class="cls-14" x1="915.96" y1="696.97" x2="915.4" y2="696.98"/><line class="cls-15" x1="915.05" y1="696.98" x2="899.47" y2="697.13"/><line class="cls-14" x1="899.29" y1="697.13" x2="898.74" y2="697.13"/><path class="cls-10" d="M914.36,699.6s-1.65,2-4.38,0Z"/><path class="cls-10" d="M899.38,699.75h-1.81s-4.24,0-4.29-5.2l6.05-.06Z"/><path class="cls-13" d="M910.45,672.92v-.63l-.14-14.5-13.39.13c-3.22,0-3.31,2.62-3.31,2.62l.12,11.91v.63l.12,11.91s.13,2.59,3.35,2.56l13.39-.13Z"/><path class="cls-10" d="M898.72,657.9h-1.1c-3.22,0-3.3,2.62-3.3,2.62l.11,11.91v.64l.11,11.9s.13,2.59,3.36,2.56H899Z"/><polygon class="cls-16" points="911.29 687.41 911.16 672.92 911.15 672.28 911.01 657.78 898.72 657.9 899 687.53 911.29 687.41"/><path class="cls-12" d="M917.43,672.86v-.64l-.14-14.5-7.73.08c-3.22,0-3.3,2.62-3.3,2.62l.11,11.91V673l.12,11.91s.13,2.59,3.35,2.56l7.73-.07Z"/><path class="cls-16" d="M918.18,672.85v-.64L918,657.72l-7.73.07c-3.22,0-3.31,2.62-3.31,2.62l.11,11.91V673l.11,11.91s.14,2.59,3.36,2.56l7.73-.07Z"/><rect class="cls-13" x="896.12" y="663.04" width="17.91" height="3.85" transform="translate(-6.26 8.61) rotate(-0.54)"/><rect class="cls-11" x="896.12" y="663.68" width="17.41" height="2.59" transform="translate(-6.26 8.61) rotate(-0.54)"/><polyline class="cls-17" points="907.63 663.02 905.32 663.04 905.35 666.89 907.67 666.87"/><path class="cls-1" d="M910.93,665.45a.54.54,0,0,0,0-1.08.54.54,0,1,0,0,1.08Z"/><path class="cls-1" d="M902.07,665.54a.54.54,0,0,0,.53-.55.53.53,0,0,0-.54-.53.54.54,0,0,0-.54.54A.55.55,0,0,0,902.07,665.54Z"/><circle class="cls-1" cx="898.79" cy="665.03" r="0.54"/><rect class="cls-13" x="896.27" y="678.42" width="17.91" height="3.85" transform="translate(-6.41 8.61) rotate(-0.54)"/><rect class="cls-11" x="896.27" y="679.06" width="17.41" height="2.59" transform="matrix(1, -0.01, 0.01, 1, -6.41, 8.61)"/><polyline class="cls-17" points="907.78 678.4 905.46 678.42 905.5 682.27 907.81 682.25"/><path class="cls-1" d="M911.07,680.83a.54.54,0,1,0,0-1.08.55.55,0,0,0-.53.55A.54.54,0,0,0,911.07,680.83Z"/><path class="cls-1" d="M902.21,680.92a.55.55,0,0,0,.54-.55.54.54,0,0,0-1.08,0A.54.54,0,0,0,902.21,680.92Z"/><circle class="cls-1" cx="898.93" cy="680.41" r="0.54"/><rect class="cls-13" x="929.64" y="648.04" width="3.85" height="29.4" transform="translate(1585.45 -275.06) rotate(89.46)"/><rect class="cls-11" x="930.02" y="648.29" width="2.59" height="28.91" transform="translate(1585.21 -274.81) rotate(89.46)"/><polyline class="cls-17" points="939.87 660.74 937.55 660.76 937.59 664.61 939.9 664.59"/><rect class="cls-17" x="919.35" y="660.91" width="4.66" height="3.85" transform="translate(-6.24 8.76) rotate(-0.54)"/><path class="cls-1" d="M943.16,663.17a.54.54,0,0,0,.54-.54.54.54,0,1,0-1.08,0A.54.54,0,0,0,943.16,663.17Z"/><path class="cls-1" d="M934.3,663.26a.55.55,0,0,0,.54-.55.54.54,0,0,0-.55-.53.53.53,0,0,0-.53.54A.54.54,0,0,0,934.3,663.26Z"/><path class="cls-1" d="M930.74,663.29a.54.54,0,0,0,0-1.08.54.54,0,1,0,0,1.08Z"/><path class="cls-1" d="M927.18,663.32a.54.54,0,0,0,.53-.54.54.54,0,0,0-.54-.54.55.55,0,0,0-.54.55A.53.53,0,0,0,927.18,663.32Z"/><rect class="cls-13" x="929.82" y="667.27" width="3.85" height="29.4" transform="translate(1604.86 -256.19) rotate(89.46)"/><rect class="cls-11" x="930.2" y="667.52" width="2.59" height="28.91" transform="translate(1604.62 -255.94) rotate(89.46)"/><polyline class="cls-17" points="940.05 679.97 937.73 679.99 937.77 683.84 940.09 683.82"/><rect class="cls-17" x="919.54" y="680.14" width="4.66" height="3.85" transform="translate(-6.42 8.77) rotate(-0.54)"/><circle class="cls-1" cx="943.34" cy="681.86" r="0.54"/><circle class="cls-1" cx="934.48" cy="681.95" r="0.54"/><circle class="cls-1" cx="930.92" cy="681.98" r="0.54"/><path class="cls-1" d="M927.36,682.56a.54.54,0,0,0,.53-.55.52.52,0,0,0-.54-.53.54.54,0,0,0-.54.54A.55.55,0,0,0,927.36,682.56Z"/><path class="cls-11" d="M950.78,665.83s8.34,1.29,8.38,6.31S950.9,678,950.9,678l0-1.61s7-1.14,7-4.22-7.08-4.65-7.08-4.65Z"/><path class="cls-18" d="M1062.86,903.39a35.9,35.9,0,0,0-35.63-32h-2.38V778.29a56.55,56.55,0,0,0-56.49-56.47H762.15a56.55,56.55,0,0,0-56.49,56.47v93.08h-2.38a35.87,35.87,0,0,0-35.84,35.84v120.56a35.83,35.83,0,0,0,30.32,35.34v36.37a13.14,13.14,0,0,0,13.14,13.14H753a13.14,13.14,0,0,0,13.14-13.14v-35.9H964.41v35.9a13.14,13.14,0,0,0,13.14,13.14h42a13.14,13.14,0,0,0,13.16-13.14v-36.37a35.85,35.85,0,0,0,30.32-35.34V907.21A32,32,0,0,0,1062.86,903.39ZM760.18,808a29.21,29.21,0,0,1,29.24-29.24H941.07A29.21,29.21,0,0,1,970.31,808v70.32H760.18ZM752,1006a33.43,33.43,0,0,1-15.44-63.08,33.43,33.43,0,0,1,48.85,29.65A33.44,33.44,0,0,1,752,1006Zm226.45,0a33.43,33.43,0,1,1,33.46-33.43A33.42,33.42,0,0,1,978.47,1006Z"/><line class="cls-19" x1="789.97" y1="703.26" x2="790.63" y2="727.73"/><rect class="cls-19" x="786.33" y="703.25" width="7.95" height="24.48" transform="translate(-19.03 21.6) rotate(-1.55)"/><line class="cls-19" x1="809.07" y1="703.26" x2="809.73" y2="727.73"/><rect class="cls-19" x="805.42" y="703.25" width="7.95" height="24.48" transform="translate(-19.03 22.12) rotate(-1.55)"/><line class="cls-19" x1="910" y1="702.52" x2="910.66" y2="726.98"/><rect class="cls-19" x="906.36" y="702.51" width="7.95" height="24.48" transform="translate(-18.97 24.85) rotate(-1.55)"/><line class="cls-19" x1="929.1" y1="702.52" x2="929.76" y2="726.98"/><rect class="cls-19" x="925.45" y="702.51" width="7.95" height="24.48" transform="translate(-18.96 25.36) rotate(-1.55)"/><rect class="cls-18" x="757.51" y="694.83" width="215.38" height="11.79" rx="1.49" ry="1.49"/><rect class="cls-18" x="767.73" y="682.84" width="190.99" height="1.24"/><rect class="cls-18" x="847.96" y="682.1" width="1.24" height="12.65"/><rect class="cls-18" x="851.43" y="682.1" width="1.24" height="12.65"/><rect class="cls-18" x="855.32" y="682.1" width="1.24" height="12.65"/><rect class="cls-18" x="858.79" y="682.1" width="1.24" height="12.65"/><rect class="cls-18" x="862.72" y="682.1" width="1.24" height="12.65"/><rect class="cls-18" x="866.19" y="682.1" width="1.24" height="12.65"/><rect class="cls-18" x="870.07" y="682.1" width="1.24" height="12.65"/><rect class="cls-18" x="873.55" y="682.1" width="1.24" height="12.65"/><rect class="cls-18" x="768.44" y="682.1" width="1.24" height="12.65"/><rect class="cls-18" x="771.91" y="682.1" width="1.24" height="12.65"/><rect class="cls-18" x="775.79" y="682.1" width="1.24" height="12.65"/><rect class="cls-18" x="779.27" y="682.1" width="1.24" height="12.65"/><rect class="cls-18" x="875.94" y="682.43" width="1.24" height="12.65"/><rect class="cls-18" x="879.42" y="682.43" width="1.24" height="12.65"/><rect class="cls-18" x="883.3" y="682.43" width="1.24" height="12.65"/><rect class="cls-18" x="886.77" y="682.43" width="1.24" height="12.65"/><rect class="cls-18" x="833.54" y="681.97" width="1.24" height="12.65"/><rect class="cls-18" x="837.01" y="681.97" width="1.24" height="12.65"/><rect class="cls-18" x="840.89" y="681.97" width="1.24" height="12.65"/><rect class="cls-18" x="844.37" y="681.97" width="1.24" height="12.65"/><rect class="cls-18" x="946.05" y="682.76" width="1.24" height="12.65"/><rect class="cls-18" x="949.52" y="682.76" width="1.24" height="12.65"/><rect class="cls-18" x="953.4" y="682.76" width="1.24" height="12.65"/><rect class="cls-18" x="956.87" y="682.76" width="1.24" height="12.65"/><path class="cls-20" d="M346.26,1185a9.12,9.12,0,0,1-.8-3.69,8.25,8.25,0,0,1,.76-3.52,9.72,9.72,0,0,1,2.14-3,9.2,9.2,0,0,1,3.25-2,10.08,10.08,0,0,1,3.66-.7,9.06,9.06,0,0,1,3.52.7,10.49,10.49,0,0,1,3,2,9,9,0,0,1,2.18,3.09l31.92,72.63,31.82-72.63a10.17,10.17,0,0,1,2.14-3,9.06,9.06,0,0,1,3-2,10.25,10.25,0,0,1,3.52-.69,10.09,10.09,0,0,1,3.75.65,9.13,9.13,0,0,1,3.21,2,9.32,9.32,0,0,1,2,3,9.44,9.44,0,0,1,.75,3.52,8.66,8.66,0,0,1-.75,3.7l-40.66,92.55a9.42,9.42,0,0,1-4.19,4.61,9.63,9.63,0,0,1-6.06,1.13.39.39,0,0,1-.18,0,.6.6,0,0,0-.26-.05l-.9-.25a9.13,9.13,0,0,1-3.65-1.87,9.85,9.85,0,0,1-2.59-3.53Z"/><path class="cls-20" d="M509.67,1262h-51L452,1277.61a9.23,9.23,0,0,1-2.23,3.13,9,9,0,0,1-3.16,1.91,10.46,10.46,0,0,1-3.75.57,10.58,10.58,0,0,1-3.87-.83,8.6,8.6,0,0,1-3.21-2.13,8.38,8.38,0,0,1-1.83-3,8.74,8.74,0,0,1-.45-3.57,11.13,11.13,0,0,1,.94-3.74l40.74-92.29a9.42,9.42,0,0,1,3.57-4.26,9.66,9.66,0,0,1,5.35-1.48,9.39,9.39,0,0,1,5.17,1.48,9.54,9.54,0,0,1,3.56,4.17l41,92.38a10,10,0,0,1,.49,7.22,8.25,8.25,0,0,1-4.86,5.22,10.51,10.51,0,0,1-3.83.83,9.89,9.89,0,0,1-3.7-.61,10.16,10.16,0,0,1-3.17-1.92,9.78,9.78,0,0,1-2.31-3.08Zm-43.24-18.88h35.22l-17.48-41Z"/><path class="cls-20" d="M565.66,1206.62V1274a9,9,0,0,1-.76,3.7,8.76,8.76,0,0,1-2.1,2.91,10.39,10.39,0,0,1-3.12,2,9.74,9.74,0,0,1-3.74.74,9.63,9.63,0,0,1-3.79-.74,10,10,0,0,1-3-2,9,9,0,0,1-2.81-6.61v-92.46a8.8,8.8,0,0,1,2.5-6.35,8.21,8.21,0,0,1,2.94-2.35,9.44,9.44,0,0,1,4.19-.87,9.82,9.82,0,0,1,4.14.91,10.52,10.52,0,0,1,3.53,2.65l61.69,72.29v-66.55a8.55,8.55,0,0,1,.8-3.65,9.15,9.15,0,0,1,2.14-3,10.56,10.56,0,0,1,3.12-1.95,9.76,9.76,0,0,1,3.83-.74,9.23,9.23,0,0,1,3.7.74,10.11,10.11,0,0,1,3,1.95,8.54,8.54,0,0,1,2,3,9.65,9.65,0,0,1,.71,3.65V1274a9.09,9.09,0,0,1-1,4.18,8.54,8.54,0,0,1-2.67,3.13,7.83,7.83,0,0,1-2.45,1.48,9.16,9.16,0,0,1-3.17.52h-.53a8.15,8.15,0,0,1-3.75-1,11,11,0,0,1-3-2.65Z"/><path class="cls-21" d="M721,1225.42l56.43-52.37a9.47,9.47,0,0,1,3.3-2,10.4,10.4,0,0,1,3.61-.56,9.37,9.37,0,0,1,3.61.82,10.68,10.68,0,0,1,3.21,2.18,8.82,8.82,0,0,1,2,3.08,8.44,8.44,0,0,1,.49,3.53,10.06,10.06,0,0,1-.94,3.56,9.56,9.56,0,0,1-2.32,3.13l-40.65,37.5,41.55,41.31a10.22,10.22,0,0,1,2.14,3.27,9.75,9.75,0,0,1,.71,3.61,8.45,8.45,0,0,1-.76,3.52,10.12,10.12,0,0,1-2.18,3.09,9,9,0,0,1-6.56,2.74,9.13,9.13,0,0,1-6.55-2.92l-42.25-41.84L721,1250.82v21.66a9.1,9.1,0,0,1-.76,3.7,8.72,8.72,0,0,1-2.1,2.91,10.56,10.56,0,0,1-3.12,2,9.95,9.95,0,0,1-7.53,0,10.11,10.11,0,0,1-3-2,9,9,0,0,1-2.81-6.61v-92.73a9,9,0,0,1,.76-3.65,8.82,8.82,0,0,1,2-3,10.33,10.33,0,0,1,3-2,9.95,9.95,0,0,1,7.53,0,10.8,10.8,0,0,1,3.12,2,8.53,8.53,0,0,1,2.1,3,9.15,9.15,0,0,1,.76,3.65Z"/><path class="cls-21" d="M875.43,1260.47h-51l-6.69,15.66a9.36,9.36,0,0,1-5.39,5,10.66,10.66,0,0,1-3.74.56,10.39,10.39,0,0,1-3.88-.83,8.48,8.48,0,0,1-5.49-8.69,11.25,11.25,0,0,1,.94-3.74l40.74-92.3a9.53,9.53,0,0,1,3.57-4.26,9.77,9.77,0,0,1,5.35-1.48,9.48,9.48,0,0,1,5.17,1.48,9.62,9.62,0,0,1,3.56,4.18l41,92.38a10,10,0,0,1,.49,7.22,8.26,8.26,0,0,1-4.86,5.21,10.26,10.26,0,0,1-3.83.83,9.69,9.69,0,0,1-3.7-.61,10,10,0,0,1-3.16-1.91,9.59,9.59,0,0,1-2.32-3.09ZM832.2,1241.6h35.21l-17.47-41Z"/><path class="cls-21" d="M931.42,1225.42l56.43-52.37a9.47,9.47,0,0,1,3.3-2,10.4,10.4,0,0,1,3.61-.56,9.37,9.37,0,0,1,3.61.82,10.68,10.68,0,0,1,3.21,2.18,8.82,8.82,0,0,1,2,3.08,8.44,8.44,0,0,1,.49,3.53,10.06,10.06,0,0,1-.94,3.56,9.43,9.43,0,0,1-2.32,3.13l-40.65,37.5,41.55,41.31a10.22,10.22,0,0,1,2.14,3.27,9.75,9.75,0,0,1,.71,3.61,8.45,8.45,0,0,1-.76,3.52,10,10,0,0,1-2.18,3.09,9,9,0,0,1-6.56,2.74,9.13,9.13,0,0,1-6.55-2.92l-42.25-41.84-14.8,13.75v21.66a9.1,9.1,0,0,1-.76,3.7,8.72,8.72,0,0,1-2.1,2.91,10.56,10.56,0,0,1-3.12,2,9.95,9.95,0,0,1-7.53,0,10.11,10.11,0,0,1-3-2,9,9,0,0,1-2.81-6.61v-92.73a9,9,0,0,1,.76-3.65,8.82,8.82,0,0,1,2-3,10.33,10.33,0,0,1,3-2,9.95,9.95,0,0,1,7.53,0,10.8,10.8,0,0,1,3.12,2,8.53,8.53,0,0,1,2.1,3,9.15,9.15,0,0,1,.76,3.65Z"/><path class="cls-21" d="M1085.82,1260.47h-51l-6.69,15.66a9.36,9.36,0,0,1-5.39,5,10.68,10.68,0,0,1-3.75.56,10.38,10.38,0,0,1-3.87-.83,8.7,8.7,0,0,1-3.21-2.12,8.41,8.41,0,0,1-1.83-3,8.72,8.72,0,0,1-.45-3.56,11,11,0,0,1,.94-3.74l40.74-92.3a9.53,9.53,0,0,1,3.57-4.26,9.74,9.74,0,0,1,5.34-1.48,9.49,9.49,0,0,1,5.18,1.48,9.62,9.62,0,0,1,3.56,4.18l41,92.38a10,10,0,0,1,.49,7.22,8.26,8.26,0,0,1-4.86,5.21,10.3,10.3,0,0,1-3.83.83,9.69,9.69,0,0,1-3.7-.61,10,10,0,0,1-3.17-1.91,9.71,9.71,0,0,1-2.31-3.09Zm-43.24-18.87h35.22l-17.47-41Z"/><path class="cls-22" d="M1079.74,476.72H903.31v-107A27.79,27.79,0,0,0,889,345.4L745.77,265.5c-.81-.42-1.61-.81-2.45-1.19V218.74h77.15a11.14,11.14,0,0,0,11.15-11.16v-56.3a11.11,11.11,0,0,0-11.15-11.12H743.32v-5a11.14,11.14,0,1,0-22.28,0V264.31c-.8.38-1.64.77-2.41,1.19L575.36,345.4a27.82,27.82,0,0,0-14.27,24.31v107H384.66a37.14,37.14,0,0,0-37.14,37.14V868.22H616.17V857.8a45.45,45.45,0,0,1,45.39-45.39h3V694.55a71.6,71.6,0,0,1,71.55-71.48h84.17v.11L927,623v.07h46.27v-.14l26.12,0c37.67,5.21,68.58,37.63,68.58,76.73h0l1.54,106.66a35.89,35.89,0,0,1,7,.7c9.13,1.85,17.66,7.06,24.51,14.09,8.61,8.85,14.59,20.53,15.81,31.89V513.86A37.12,37.12,0,0,0,1079.74,476.72Zm-588.63,300a21.67,21.67,0,0,1-21.65,21.65H429a21.67,21.67,0,0,1-21.65-21.65V736.2A21.66,21.66,0,0,1,429,714.56h40.46a21.66,21.66,0,0,1,21.65,21.64Zm0-130.06a21.65,21.65,0,0,1-21.65,21.65H429a21.65,21.65,0,0,1-21.65-21.65V606.18A21.61,21.61,0,0,1,429,584.57h40.46a21.61,21.61,0,0,1,21.65,21.61Zm130,130.06a21.66,21.66,0,0,1-21.64,21.65H559a21.66,21.66,0,0,1-21.64-21.65V736.2A21.65,21.65,0,0,1,559,714.56h40.47a21.65,21.65,0,0,1,21.64,21.64Zm0-130.06a21.64,21.64,0,0,1-21.64,21.65H559a21.64,21.64,0,0,1-21.64-21.65V606.18A21.6,21.6,0,0,1,559,584.57h40.47a21.6,21.6,0,0,1,21.64,21.61ZM732.2,492.42a61.31,61.31,0,1,1,61.3-61.3A61.31,61.31,0,0,1,732.2,492.42Z"/><path class="cls-22" d="M372,995.58a16.24,16.24,0,0,0,16.09-14.05h9.22a4.35,4.35,0,1,0,0-8.7H386.87A16.23,16.23,0,1,0,372,995.58Z"/><path class="cls-22" d="M334.47,1026.23,336,1052.9a6.93,6.93,0,1,0,13.83-.82L348.59,1030l6.64-3.34s-.08,11.45-.1,44.22c0,9.75,0,21.41,0,35.22a7.53,7.53,0,0,0,15.06,0v-47.5h3.39l6.2,12.28,1,2L372,1094.55a7.52,7.52,0,1,0,13.93,5.68L396,1075.41a7.36,7.36,0,0,0,.36-4.56,6.88,6.88,0,0,0-.61-1.68l-7-13.87-8.72-3.68c-2.88-1.22-4.58-1.62-5.9-4.94l-9.9-24.72,15.61,21a7.06,7.06,0,0,0,2.88,2.25l20.62,8.7c4,1.68,7.65-.72,9.5-5,5.63-11.67,2.64-5.51,8.68-18l8.61-4.33v26.67l-1.64,17.55-.23,2.52-17.48,18.91a7.53,7.53,0,1,0,11.05,10.22l19.23-20.79a7.53,7.53,0,0,0,1.95-4.41l.61-6.45,1.14-12.28h2.67l2.88,12.28,1.89,8.05L448.54,1105a7.52,7.52,0,1,0,14.9,2.1l3.89-27.51a7.3,7.3,0,0,0-.13-2.79l-1.41-6-2.88-12.28.47-21.22-19.82-15.43,24.1,10.28a6.84,6.84,0,0,0,3.6.48l21.35-2.77c3.38-.44,5.8-3.55,6.87-6.68.49-1.37,3.49-7.86,14.78-35.48,4-4.71,7.33-8.72,10.19-12.12,15-17.83,16.18-19.21,16.5-19.7-1.33,2.48-11.39,20.87-16.5,30.18l-2.94,5.38-9.63,31.08,5.25,33.52-5.54,14.71-10.81,28.67a10.27,10.27,0,1,0,19.21,7.25l17.32-45.92A10.5,10.5,0,0,0,538,1057c0-.47-.06-.91-.12-1.37-.74-4.69-5-31.71-5.85-37.11l5.43.46,7.71,17.08,8.66,19.17,11.41,50.19a10.27,10.27,0,0,0,20-4.57l-11.65-51.19a9.71,9.71,0,0,0-.65-1.95l-14.12-31.23c.65-7.4,1.13-13.09,1.87-21.65l25.09,20.83a8.54,8.54,0,0,0,10.91-13.14l-28-23.26-5.87-9.16,1.24-14.42,0-.11a12.77,12.77,0,0,0-11.62-13.8l-22.65-1.94a12.46,12.46,0,0,0-5.36.7,12.65,12.65,0,0,0-8.45,10.9l-.19,2.17c4.23-3,6.92-5,8.64-6.2,3.3-2.38,3.11-2.23,3.72-2.54-.4.35,0-.13-3.72,4.24-3.39,4-10.17,12.13-24.13,28.73a8.56,8.56,0,0,0-1.36,2.27c-11.75,28.69-14.84,37-14.84,37l-12.78,1.68L449,1009.19l14,2a9.06,9.06,0,0,0-8.68-6.49H439.23a9.08,9.08,0,0,0-8.59,6.18l-17.43,8.74a6.75,6.75,0,0,0-3.13,3.18c-5.78,12-3.63,7.5-7.58,15.69l-12.63-5.31-14.51-19.51,13.1,10.45v-10.34a9.08,9.08,0,0,0-9.06-9.08H364.31a9.1,9.1,0,0,0-8.6,6.18l-17.42,8.74A6.94,6.94,0,0,0,334.47,1026.23Z"/><path class="cls-22" d="M545,934.25a18.88,18.88,0,1,0-17.19-20.43A18.9,18.9,0,0,0,545,934.25Z"/><circle class="cls-22" cx="446.92" cy="979.35" r="16.23"/><rect class="cls-1" x="813.41" y="949.5" width="106.55" height="10.26" rx="1.75" ry="1.75"/><rect class="cls-1" x="813.41" y="964.53" width="106.55" height="10.26" rx="1.75" ry="1.75"/><rect class="cls-1" x="813.41" y="980.66" width="106.55" height="10.26" rx="1.75" ry="1.75"/><rect class="cls-1" x="813.41" y="996.79" width="106.55" height="10.26" rx="1.75" ry="1.75"/><path class="cls-23" d="M709.29,1312.43c-.68-.23-1.44-.51-2.26-.84a10.75,10.75,0,0,1-2.31-1.26,6.86,6.86,0,0,1-1.8-1.88,4.82,4.82,0,0,1-.71-2.66,5.66,5.66,0,0,1,.68-2.8,6.73,6.73,0,0,1,1.76-2,7.9,7.9,0,0,1,2.37-1.24,8.05,8.05,0,0,1,2.51-.42,9,9,0,0,1,4.27,1,7.05,7.05,0,0,1,2.93,3,.37.37,0,0,1,0,.28.61.61,0,0,1-.15.24.43.43,0,0,1-.27.08.5.5,0,0,1-.32-.19,7.63,7.63,0,0,0-1.37-1.66,6.94,6.94,0,0,0-1.6-1.06,6.82,6.82,0,0,0-1.74-.57,9,9,0,0,0-1.78-.18,7.49,7.49,0,0,0-2.1.33,7,7,0,0,0-2.1,1,5.71,5.71,0,0,0-1.62,1.73,4.72,4.72,0,0,0-.64,2.5,3.65,3.65,0,0,0,.32,1.69,4.63,4.63,0,0,0,.89,1.33,5.77,5.77,0,0,0,1.24,1,11.41,11.41,0,0,0,1.42.75c.47.2.93.38,1.37.53l1.14.4c1.07.42,2.1.85,3.1,1.3a12.83,12.83,0,0,1,2.67,1.56,7,7,0,0,1,1.87,2.1,5.63,5.63,0,0,1,.71,2.89,7.94,7.94,0,0,1-.71,3.41,7.81,7.81,0,0,1-1.86,2.53,8.1,8.1,0,0,1-2.63,1.58,9,9,0,0,1-3,.54,9.16,9.16,0,0,1-2.66-.39,9.87,9.87,0,0,1-2.38-1.08,8.4,8.4,0,0,1-1.91-1.64,7,7,0,0,1-1.25-2,.46.46,0,0,1,0-.41.43.43,0,0,1,.24-.22c.21-.1.4,0,.58.28a5.79,5.79,0,0,0,1.15,1.85,8.25,8.25,0,0,0,1.77,1.45,9.11,9.11,0,0,0,2.17.93,8.35,8.35,0,0,0,2.38.34,7.86,7.86,0,0,0,2.6-.45,7.35,7.35,0,0,0,2.35-1.35,7,7,0,0,0,1.69-2.23,7.25,7.25,0,0,0,.64-3.13,4.69,4.69,0,0,0-.66-2.52,6.65,6.65,0,0,0-1.72-1.84,13.12,13.12,0,0,0-2.46-1.38C711.18,1313.19,710.24,1312.8,709.29,1312.43Z"/><path class="cls-23" d="M745.79,1303.53a.46.46,0,0,1,0,.65.39.39,0,0,1-.31.15.46.46,0,0,1-.33-.15,12.57,12.57,0,0,0-4.14-3,11.71,11.71,0,0,0-4.7-1,11.56,11.56,0,0,0-4.86,1,12.29,12.29,0,0,0-4,2.82,13.27,13.27,0,0,0-2.64,4.18,13.62,13.62,0,0,0-1,5.11,13.38,13.38,0,0,0,.94,5,13,13,0,0,0,2.61,4.17,12.59,12.59,0,0,0,3.93,2.86,11.5,11.5,0,0,0,4.93,1.07,12.38,12.38,0,0,0,4.68-.91,11.63,11.63,0,0,0,4.12-2.86.46.46,0,0,1,.34-.18.43.43,0,0,1,.3.13.49.49,0,0,1,.12.34.46.46,0,0,1-.12.33,12.65,12.65,0,0,1-4.42,3.08,13.26,13.26,0,0,1-5,1,12.36,12.36,0,0,1-3.56-.51,13.68,13.68,0,0,1-3.17-1.41,13.31,13.31,0,0,1-2.68-2.19,13.84,13.84,0,0,1-2.06-2.84,14.78,14.78,0,0,1-1.35-10.69,15.1,15.1,0,0,1,1.27-3.32,14.78,14.78,0,0,1,2-2.88,12.91,12.91,0,0,1,5.88-3.73,12.54,12.54,0,0,1,8.7.55A13.49,13.49,0,0,1,745.79,1303.53Z"/><path class="cls-23" d="M752.91,1312.92h18.64V1300a.45.45,0,0,1,.13-.32.43.43,0,0,1,.32-.14.42.42,0,0,1,.29.14.45.45,0,0,1,.13.32v26.67a.42.42,0,0,1-.13.31.38.38,0,0,1-.29.14.4.4,0,0,1-.32-.14.42.42,0,0,1-.13-.31v-12.84H752.91v12.84a.43.43,0,0,1-.14.31.37.37,0,0,1-.29.14.4.4,0,0,1-.32-.14.42.42,0,0,1-.13-.31V1300a.45.45,0,0,1,.13-.32.43.43,0,0,1,.32-.14.4.4,0,0,1,.29.14.47.47,0,0,1,.14.32Z"/><path class="cls-23" d="M792.11,1299.31a12.26,12.26,0,0,1,5.18,1.11,13.59,13.59,0,0,1,4.24,3,14.57,14.57,0,0,1,2.86,4.46,14.29,14.29,0,0,1,1.06,5.47,13.93,13.93,0,0,1-.49,3.73,14.56,14.56,0,0,1-1.34,3.36,13.33,13.33,0,0,1-8,6.45,12.39,12.39,0,0,1-3.55.51,12.52,12.52,0,0,1-5.21-1.1,13.43,13.43,0,0,1-4.23-3,14.13,14.13,0,0,1-2.83-4.47,15.07,15.07,0,0,1-.56-9.21,13.86,13.86,0,0,1,1.33-3.35,14.47,14.47,0,0,1,2.06-2.85,12.78,12.78,0,0,1,2.69-2.19,13.27,13.27,0,0,1,3.19-1.42A12.6,12.6,0,0,1,792.11,1299.31Zm0,.92a11.84,11.84,0,0,0-3.32.47,12.25,12.25,0,0,0-3,1.32,12.64,12.64,0,0,0-2.5,2.06,13.37,13.37,0,0,0-1.94,2.65,13.7,13.7,0,0,0-1.24,3.14,14.06,14.06,0,0,0,0,7,13.62,13.62,0,0,0,1.24,3.13,13.37,13.37,0,0,0,1.94,2.65,11.88,11.88,0,0,0,8.8,3.85,11.76,11.76,0,0,0,6.29-1.79,12.36,12.36,0,0,0,2.51-2.06,13,13,0,0,0,2-2.65,13.67,13.67,0,0,0,1.26-3.13,13.76,13.76,0,0,0,0-7,13.75,13.75,0,0,0-1.26-3.14,13,13,0,0,0-2-2.65,12.7,12.7,0,0,0-2.51-2.06,12.08,12.08,0,0,0-3-1.32A11.77,11.77,0,0,0,792.11,1300.23Z"/><path class="cls-23" d="M823.53,1299.31a12.34,12.34,0,0,1,5.19,1.11,13.54,13.54,0,0,1,4.23,3,14.59,14.59,0,0,1,3.44,13.66,15,15,0,0,1-1.34,3.36,13.78,13.78,0,0,1-2.09,2.84,13.21,13.21,0,0,1-2.7,2.2,13.39,13.39,0,0,1-3.18,1.41,12.34,12.34,0,0,1-3.55.51,12.55,12.55,0,0,1-5.21-1.1,13.5,13.5,0,0,1-4.22-3,14,14,0,0,1-2.83-4.47,14.47,14.47,0,0,1-1-5.47,14.4,14.4,0,0,1,3.87-9.94,12.53,12.53,0,0,1,2.69-2.19,13.37,13.37,0,0,1,3.18-1.42A12.65,12.65,0,0,1,823.53,1299.31Zm0,.92a11.77,11.77,0,0,0-3.31.47,11.92,11.92,0,0,0-3,1.32,12.7,12.7,0,0,0-2.51,2.06,13.33,13.33,0,0,0-1.93,2.65,13.64,13.64,0,0,0-1.69,6.63,13.91,13.91,0,0,0,.44,3.49,13.65,13.65,0,0,0,1.25,3.13,13.33,13.33,0,0,0,1.93,2.65,12.36,12.36,0,0,0,2.51,2.06,11.94,11.94,0,0,0,3,1.33,11.86,11.86,0,0,0,9.6-1.33,12.69,12.69,0,0,0,2.52-2.06,13,13,0,0,0,1.94-2.65,13.67,13.67,0,0,0,1.26-3.13,13.76,13.76,0,0,0,0-7,13.75,13.75,0,0,0-1.26-3.14,12.93,12.93,0,0,0-4.46-4.71,12,12,0,0,0-3-1.32A11.84,11.84,0,0,0,823.53,1300.23Z"/><path class="cls-23" d="M844.11,1326.2h15.74a.42.42,0,0,1,.31.13.39.39,0,0,1,.14.3.48.48,0,0,1-.14.35.39.39,0,0,1-.31.14H843.64a.41.41,0,0,1-.28-.15.38.38,0,0,1-.13-.3V1300a.52.52,0,0,1,.14-.36.41.41,0,0,1,.31-.14.42.42,0,0,1,.3.14.52.52,0,0,1,.13.36Z"/><path class="cls-23" d="M884.34,1327h0s0,0,0,0a.39.39,0,0,1-.12-.19l-10.84-26.61a.39.39,0,0,1,0-.33.4.4,0,0,1,.21-.25.35.35,0,0,1,.34,0,.49.49,0,0,1,.26.25l10.49,25.7,10.52-25.7a.41.41,0,0,1,.24-.24.35.35,0,0,1,.33,0,.53.53,0,0,1,.24.25.42.42,0,0,1,0,.31L885,1326.84a.41.41,0,0,1-.27.26h-.22A.39.39,0,0,1,884.34,1327Z"/><path class="cls-23" d="M914.78,1319.67h-15.2l-2.93,7.17a.49.49,0,0,1-.23.26.38.38,0,0,1-.36,0,.4.4,0,0,1-.23-.26.5.5,0,0,1,0-.36l10.91-26.65a.43.43,0,0,1,.43-.29.45.45,0,0,1,.41.29l10.88,26.67a.41.41,0,0,1,0,.34.4.4,0,0,1-.55.27.6.6,0,0,1-.28-.24Zm-14.83-.93h14.46L907.19,1301Z"/><path class="cls-23" d="M943.16,1326.89l-18.4-25.6v25.38a.42.42,0,0,1-.13.31.39.39,0,0,1-.3.14.38.38,0,0,1-.31-.14.43.43,0,0,1-.14-.31V1300a.44.44,0,0,1,.39-.48h.06a.44.44,0,0,1,.37.22l18.39,25.51V1300a.5.5,0,0,1,.13-.32.41.41,0,0,1,.33-.16.37.37,0,0,1,.31.16.48.48,0,0,1,.11.32v26.65a.45.45,0,0,1-.42.45h-.09a.47.47,0,0,1-.26-.17v0Z"/><path class="cls-23" d="M968.07,1312.43c-.68-.23-1.43-.51-2.26-.84a11.25,11.25,0,0,1-2.31-1.26,7,7,0,0,1-1.79-1.88,4.74,4.74,0,0,1-.71-2.66,5.56,5.56,0,0,1,.68-2.8,6.59,6.59,0,0,1,1.76-2,7.85,7.85,0,0,1,2.36-1.24,8.11,8.11,0,0,1,2.52-.42,9,9,0,0,1,4.27,1,7.05,7.05,0,0,1,2.93,3,.32.32,0,0,1,0,.28.58.58,0,0,1-.14.24.44.44,0,0,1-.28.08.48.48,0,0,1-.31-.19,7.39,7.39,0,0,0-1.38-1.66,6.68,6.68,0,0,0-1.59-1.06,6.82,6.82,0,0,0-1.74-.57,9,9,0,0,0-1.78-.18,7.55,7.55,0,0,0-2.11.33,6.83,6.83,0,0,0-2.09,1,5.71,5.71,0,0,0-1.62,1.73,4.72,4.72,0,0,0-.64,2.5,3.78,3.78,0,0,0,.31,1.69,4.84,4.84,0,0,0,.89,1.33,6.08,6.08,0,0,0,1.25,1,10.64,10.64,0,0,0,1.41.75c.48.2.94.38,1.37.53l1.15.4c1.06.42,2.1.85,3.1,1.3a12.83,12.83,0,0,1,2.67,1.56,7,7,0,0,1,1.87,2.1,5.63,5.63,0,0,1,.71,2.89,7.94,7.94,0,0,1-.71,3.41,7.81,7.81,0,0,1-1.86,2.53,8.1,8.1,0,0,1-2.63,1.58,9,9,0,0,1-3,.54,9.16,9.16,0,0,1-2.66-.39,9.7,9.7,0,0,1-2.38-1.08,8.68,8.68,0,0,1-1.92-1.64,7,7,0,0,1-1.24-2,.46.46,0,0,1,0-.41.4.4,0,0,1,.24-.22c.21-.1.4,0,.57.28a5.82,5.82,0,0,0,1.16,1.85,7.79,7.79,0,0,0,1.77,1.45,8.94,8.94,0,0,0,2.17.93,8.33,8.33,0,0,0,2.37.34,7.87,7.87,0,0,0,2.61-.45,7.19,7.19,0,0,0,2.34-1.35,6.76,6.76,0,0,0,1.69-2.23,7.11,7.11,0,0,0,.65-3.13,4.69,4.69,0,0,0-.66-2.52,6.55,6.55,0,0,0-1.73-1.84,12.72,12.72,0,0,0-2.45-1.38C970,1313.19,969,1312.8,968.07,1312.43Z"/><path class="cls-23" d="M983.87,1327.12a.4.4,0,0,1-.33-.18.67.67,0,0,1-.1-.38V1300a.38.38,0,0,1,.16-.35.66.66,0,0,1,.35-.11h16.57a.44.44,0,0,1,.3.12.42.42,0,0,1,.13.34.44.44,0,0,1-.13.33.42.42,0,0,1-.3.14h-16.2v12.13h12.09a.4.4,0,0,1,.32.14.58.58,0,0,1,.11.34.51.51,0,0,1-.11.31.4.4,0,0,1-.32.14H984.32v12.67h16.2a.41.41,0,0,1,.3.13.38.38,0,0,1,.13.3.48.48,0,0,1-.13.35.39.39,0,0,1-.3.14Z"/><path class="cls-23" d="M1007.38,1300a.42.42,0,0,1,.13-.34.45.45,0,0,1,.32-.12h7.55a9.59,9.59,0,0,1,3.56.67,9.09,9.09,0,0,1,2.9,1.87,8.71,8.71,0,0,1,2,2.85,9.86,9.86,0,0,1,.16,6.92,9,9,0,0,1-1.53,2.67,8.46,8.46,0,0,1-2.35,1.93,9,9,0,0,1-3,1l7.5,8.79a.44.44,0,0,1,.14.42.55.55,0,0,1-.22.34.39.39,0,0,1-.31,0,.56.56,0,0,1-.26-.15l-7.92-9.31a2.23,2.23,0,0,1-.37,0h-7.42v9a.43.43,0,0,1-.14.31.35.35,0,0,1-.29.14.4.4,0,0,1-.32-.14.42.42,0,0,1-.13-.31Zm.88.47v16.25h7a8.88,8.88,0,0,0,3.45-.65,7.83,7.83,0,0,0,2.64-1.76,7.58,7.58,0,0,0,1.68-2.58,8.42,8.42,0,0,0,.58-3.14,8.23,8.23,0,0,0-.6-3.13,8.06,8.06,0,0,0-1.69-2.59,7.89,7.89,0,0,0-2.6-1.75,8.42,8.42,0,0,0-3.33-.65Z"/><path class="cls-23" d="M1040.11,1327h0l0,0a.39.39,0,0,1-.12-.19l-10.85-26.61a.47.47,0,0,1,0-.33.45.45,0,0,1,.22-.25.35.35,0,0,1,.34,0,.47.47,0,0,1,.25.25l10.5,25.7,10.51-25.7a.45.45,0,0,1,.25-.24.35.35,0,0,1,.33,0,.51.51,0,0,1,.23.25.37.37,0,0,1,0,.31l-10.92,26.67a.46.46,0,0,1-.27.26h-.22A.38.38,0,0,1,1040.11,1327Z"/><path class="cls-23" d="M1058,1326.67a.42.42,0,0,1-.13.31.39.39,0,0,1-.3.14.41.41,0,0,1-.32-.14.46.46,0,0,1-.13-.31V1300a.46.46,0,0,1,.13-.34.47.47,0,0,1,.32-.12.44.44,0,0,1,.3.12.42.42,0,0,1,.13.34Z"/><path class="cls-23" d="M1087,1303.53a.45.45,0,0,1,0,.65.37.37,0,0,1-.3.15.43.43,0,0,1-.33-.15,12.57,12.57,0,0,0-4.14-3,11.73,11.73,0,0,0-9.57,0,12.51,12.51,0,0,0-4,2.82,13.27,13.27,0,0,0-2.64,4.18,13.92,13.92,0,0,0,0,10.11,13.37,13.37,0,0,0,2.61,4.17,12.63,12.63,0,0,0,3.94,2.86,11.5,11.5,0,0,0,4.93,1.07,12.38,12.38,0,0,0,4.68-.91,11.72,11.72,0,0,0,4.12-2.86.46.46,0,0,1,.34-.18.41.41,0,0,1,.29.13.49.49,0,0,1,.13.34.47.47,0,0,1-.13.33,12.47,12.47,0,0,1-4.42,3.08,13.17,13.17,0,0,1-5,1,12.31,12.31,0,0,1-3.56-.51,13.5,13.5,0,0,1-3.17-1.41,13,13,0,0,1-2.68-2.19,13.88,13.88,0,0,1-2.07-2.84,15.3,15.3,0,0,1-1.33-3.35,14.84,14.84,0,0,1-.47-3.73,14.46,14.46,0,0,1,.45-3.61,15.12,15.12,0,0,1,1.28-3.32,14.36,14.36,0,0,1,2-2.88,12.91,12.91,0,0,1,5.88-3.73,12.51,12.51,0,0,1,8.69.55A13.49,13.49,0,0,1,1087,1303.53Z"/><path class="cls-23" d="M1093.71,1327.12a.37.37,0,0,1-.32-.18.68.68,0,0,1-.11-.38V1300a.39.39,0,0,1,.17-.35.63.63,0,0,1,.35-.11h16.57a.4.4,0,0,1,.29.12.43.43,0,0,1,.14.34.45.45,0,0,1-.14.33.38.38,0,0,1-.29.14h-16.21v12.13h12.1a.38.38,0,0,1,.31.14.51.51,0,0,1,.11.34.45.45,0,0,1-.11.31.38.38,0,0,1-.31.14h-12.1v12.67h16.21a.37.37,0,0,1,.29.13.39.39,0,0,1,.14.3.48.48,0,0,1-.14.35.35.35,0,0,1-.29.14Z"/><rect class="cls-20" x="667.27" y="905.21" width="15.52" height="62.85"/><rect class="cls-20" x="1050.41" y="905.21" width="12.49" height="62.85"/></svg>